<svg xmlns="http://www.w3.org/2000/svg" width="184" height="39" viewBox="0 0 184 39">
  <defs id="SvgjsDefs2603"/>
  <g id="SvgjsG2604" featurekey="nameLeftFeature-0" transform="matrix(1.2,0,0,1.2,-0.2,2)" fill="white">
    <path d="M0.16 8 l0 -2 l6.8 0 l0 2 l-2.3 0 l0 12 l-2.2 0 l0 -12 l-2.3 0 z M14.76 20 l-2.24 0 c-0.12 -0.36 -0.2 -0.58 -0.2 -1.72 l0 -2.2 c0 -1.3 -0.44 -1.78 -1.44 -1.78 l-0.76 0 l0 5.7 l-2.2 0 l0 -14 l3.32 0 c2.28 0 3.26 1.06 3.26 3.22 l0 1.1 c0 1.44 -0.46 2.36 -1.44 2.82 l0 0.04 c1.1 0.46 1.46 1.5 1.46 2.96 l0 2.16 c0 0.68 0.02 1.18 0.24 1.7 z M11.18 8 l-1.06 0 l0 4.3 l0.86 0 c0.82 0 1.32 -0.36 1.32 -1.48 l0 -1.38 c0 -1 -0.34 -1.44 -1.12 -1.44 z M20.84 6 l2.24 14 l-2.22 0 l-0.38 -2.54 l-2.7 0 l-0.38 2.54 l-2.02 0 l2.24 -14 l3.22 0 z M19.1 8.48 l-1.04 7.08 l2.12 0 l-1.04 -7.08 l-0.04 0 z M28.8 20 l-2.7 -10.14 l-0.04 0 l0 10.14 l-1.98 0 l0 -14 l2.76 0 l2.22 8.38 l0.04 0 l0 -8.38 l1.96 0 l0 14 l-2.26 0 z M32.36000000000001 9.36 c0 -2.24 1.1 -3.52 3.24 -3.52 s3.24 1.28 3.24 3.52 l0 0.44 l-2.08 0 l0 -0.58 c0 -1 -0.4 -1.38 -1.1 -1.38 s-1.1 0.38 -1.1 1.38 c0 1.02 0.44 1.78 1.88 3.04 c1.84 1.62 2.42 2.78 2.42 4.38 c0 2.24 -1.12 3.52 -3.28 3.52 s-3.28 -1.28 -3.28 -3.52 l0 -0.86 l2.08 0 l0 1 c0 1 0.44 1.36 1.14 1.36 s1.14 -0.36 1.14 -1.36 c0 -1.02 -0.44 -1.78 -1.88 -3.04 c-1.84 -1.62 -2.42 -2.78 -2.42 -4.38 z"/>
  </g>
  <g id="SvgjsG2605" featurekey="symbolFeature-0" transform="matrix(0.35,0,0,0.35,45,2)" fill="#ffffff">
    <g>
      <g>
        <polygon points="54.644,56.782 35.043,56.782 29.789,76.381 49.394,76.381"/>
      </g>
      <g>
        <polygon points="29.789,76.381 16.071,76.381 12.394,90.102 26.115,90.102"/>
      </g>
      <g>
        <polygon points="72.04,43.063 58.319,43.063 54.644,56.782 68.363,56.782"/>
      </g>
      <g>
        <polygon points="60.892,33.458 51.288,33.458 48.716,43.063 58.319,43.063"/>
      </g>
      <g>
        <polygon points="78.988,17.134 69.384,17.134 66.81,26.739 76.416,26.739"/>
      </g>
      <g>
        <polygon points="37.616,47.18 28.013,47.18 25.438,56.782 35.043,56.782"/>
      </g>
      <g>
        <polygon points="87.511,10.411 80.79,10.411 78.988,17.134 85.71,17.134"/>
      </g>
      <g>
        <polygon points="80.562,36.341 73.842,36.341 72.04,43.063 78.762,43.063"/>
      </g>
      <g>
        <polygon points="53.089,26.735 46.37,26.735 44.565,33.458 51.288,33.458"/>
      </g>
    </g>
  </g>
  <g id="SvgjsG2606" featurekey="nameRightFeature-0" transform="matrix(1.2,0,0,1.2,75,2)" fill="white">
    <path d="M8.2 14.780000000000001 l2.08 0 l0 1.86 c0 2.24 -1.12 3.52 -3.28 3.52 s-3.28 -1.28 -3.28 -3.52 l0 -7.28 c0 -2.24 1.12 -3.52 3.28 -3.52 s3.28 1.28 3.28 3.52 l0 1.36 l-2.08 0 l0 -1.5 c0 -1 -0.44 -1.38 -1.14 -1.38 s-1.14 0.38 -1.14 1.38 l0 7.56 c0 1 0.44 1.36 1.14 1.36 s1.14 -0.36 1.14 -1.36 l0 -2 z M11.48 6 l6.24 0 l0 1.96 l-4.18 10.04 l4.18 0 l0 2 l-6.44 0 l0 -1.96 l4.18 -10.04 l-3.98 0 l0 -2 z M21.22 8 l0 3.9 l3.02 0 l0 2 l-3.02 0 l0 4.1 l3.8 0 l0 2 l-6 0 l0 -14 l6 0 l0 2 l-3.8 0 z M30.68 14.780000000000001 l2.08 0 l0 1.86 c0 2.24 -1.12 3.52 -3.28 3.52 s-3.28 -1.28 -3.28 -3.52 l0 -7.28 c0 -2.24 1.12 -3.52 3.28 -3.52 s3.28 1.28 3.28 3.52 l0 1.36 l-2.08 0 l0 -1.5 c0 -1 -0.44 -1.38 -1.14 -1.38 s-1.14 0.38 -1.14 1.38 l0 7.56 c0 1 0.44 1.36 1.14 1.36 s1.14 -0.36 1.14 -1.36 l0 -2 z M36.3 14 l0 6 l-2.2 0 l0 -14 l2.2 0 l0 6 l2.5 0 l0 -6 l2.24 0 l0 14 l-2.24 0 l0 -6 l-2.5 0 z"/>
  </g>
</svg>